<?xml version="1.0" encoding="UTF-8"?>
<!DOCTYPE svg PUBLIC "-//W3C//DTD SVG 1.1//EN" "http://www.w3.org/Graphics/SVG/1.1/DTD/svg11.dtd">
<!-- Creator: CorelDRAW 2020 (64 Bit) -->
<svg xmlns="http://www.w3.org/2000/svg" xml:space="preserve" width="53.6629mm" height="52.2937mm" version="1.1" style="shape-rendering:geometricPrecision; text-rendering:geometricPrecision; image-rendering:optimizeQuality; fill-rule:evenodd; clip-rule:evenodd"
viewBox="0 0 10459.72 10192.84"
 xmlns:xlink="http://www.w3.org/1999/xlink"
 xmlns:xodm="http://www.corel.com/coreldraw/odm/2003">
 <defs>
  <style type="text/css">
   <![CDATA[
    .fil0 {fill:black}
    .fil1 {fill:#171717}
    .fil3 {fill:#646464}
    .fil2 {fill:gray}
   ]]>
  </style>
 </defs>
 <g id="Camada_x0020_1">
  <metadata id="CorelCorpID_0Corel-Layer"/>
  <g id="_2203201155648">
   <path class="fil0" d="M7597.08 2633.4c1088.99,-189.44 2209.42,617.32 2377.44,1821.52 91.03,652.5 -150.07,1223.58 -454.64,1606.32 -711.4,894 -2060.08,1054.39 -2982.83,301.24 -1155.59,-943.18 -966.02,-2744.84 276.08,-3461.46 259.26,-149.58 457.74,-210.88 783.95,-267.62zm-5132.51 -14.21c299.88,-36.12 640.53,32.3 896.79,128.41 702.77,263.6 1305.09,951.85 1365.6,1796.4 89.13,1243.95 -823.85,2201.26 -1929.58,2292.65 -1225.08,101.26 -2215.84,-848.62 -2285.69,-1945.33 -43.25,-678.93 214.82,-1219.68 530.91,-1578.72 44.93,-51.03 92.04,-85.78 135.06,-133.34 45.69,-50.5 89.64,-84.34 143.46,-125.68 366.4,-281.36 664.6,-376.71 1143.47,-434.39zm7918.61 1984.47c42,124.26 14.15,147.45 19.65,263.95 -51.56,38.73 -336.05,22.94 -362.43,14.74l-1.34 -295.49 344.12 16.8zm-10306.96 0.04c31.05,-19.32 -35.07,-6.04 46.45,-17.39l142.21 0.35c63.52,-1.73 132.46,-12.55 193.16,3.43l-0.62 289.16c-59.88,25.83 -139.6,10.72 -206.67,9.43l-156.48 -1.95c-36.51,-7.7 -18.03,0.64 -37.7,-19.12 5.5,-116.4 -22.4,-139.83 19.65,-263.92zm5517.52 212.79l-28.81 -176.46 133.89 6.1 0.53 198.93 -105.61 -28.57zm-790.93 -171.02l128.35 -2.87c-14.97,63.5 -33.39,98.3 -18.98,165.83l-114.61 37.74 5.24 -200.7zm915.81 -120.46l6.06 103.23c-39.57,0 -157.86,-20.13 -178.43,14.87 -6.28,58.44 2.96,63.19 6.35,114.08 4.48,66.8 -5.75,40.13 -11.66,94.61l131.61 27.48c18.46,9.26 15.61,8.34 26.24,17.72 56.51,77.75 -32.84,570.63 543.99,1278.53 314.65,386.13 934.97,728.26 1603.68,735.47 1148.97,12.42 2122.84,-891.52 2192.29,-1974.14l201.83 0.9c-17.93,202.28 -9.98,409.36 -28.77,610.98 -49.88,534.87 -178.54,1042.31 -386.73,1525 -179.61,416.46 -441.66,856.79 -721.62,1188.03l-144.28 166.59c-25.12,31.36 -44.01,59.04 -71.01,85 -550.28,529.16 -842.7,775.98 -1572.19,1128.89 -579.6,280.42 -1355.09,454.48 -2086.31,454.52 -1067.45,0.06 -2084.83,-343.36 -2900.98,-926.82 -337.63,-241.38 -561.77,-450.72 -833.18,-751.36 -575.82,-637.82 -997.19,-1463.83 -1166.9,-2327.6 -108.55,-552.45 -71.51,-657.45 -109.83,-1153.14l229.96 1.09c25.46,57.11 58.75,318.71 92.8,429.85 275.03,897.86 1105.72,1554.55 2113.8,1542.01 820.46,-10.21 1567.49,-488.46 1918.65,-1211.32 170.65,-351.28 158.37,-458.4 222.75,-812.74l79.39 -30.09c4.11,-4.05 9.2,-8.23 13.37,-11.03l52.28 -22.16c-0.39,-47.97 12.9,-128.45 10.49,-187.47l-11.44 -18.59c-49.49,-15.28 -87.11,-5.65 -143.54,-8.17 -66.72,-562.19 -247.23,-1057.06 -660.55,-1433.87 -895.58,-816.5 -2089.24,-812.52 -2992.79,-30.11 -378.9,328.1 -630.47,858.45 -687.62,1395.16l-188.58 -2.36c-19.67,-186.14 143.94,-794.44 202.26,-977.73 88.57,-278.4 218.62,-592.56 349.42,-824.94 473.94,-841.84 922.59,-1308.6 1687.62,-1834.29 1308.97,-899.44 3236.31,-1054.96 4690.4,-404.78 294.48,131.67 514.01,249.65 764.73,409.32 127.98,81.51 231.01,159.73 346.83,247.27 129.44,97.83 506.57,434.6 611.18,562.68l264.44 315.72c148.14,185.75 344.47,474.81 461.03,712.9 135.58,276.99 248.61,513.86 348.16,825.97 58.01,181.89 220.66,784.85 199.67,968.24l-152.48 2.24c-83.66,-637.98 -339.09,-1077.37 -678.93,-1385.67 -860.12,-780.28 -2062.36,-797.2 -2964.02,-17.58 -320.87,277.42 -714.73,968.4 -679.46,1387.6zm-5688.17 21.64c-54.73,141.63 -22.2,247.66 -5.67,390.38l108.65 4.79c13.74,449.81 17.64,764.54 107.87,1196.47 208.95,1000.42 700.41,1855.61 1346.98,2527.54 436.73,453.82 945.05,787.22 1522,1066.46 594.55,287.75 1375.01,460.57 2119.43,460.53 1134.19,-0.08 2084.97,-345.53 2954.78,-940.82 179.69,-122.99 550.91,-435.66 695.22,-591.63 674.13,-728.57 1138.36,-1525.58 1342.75,-2532.22 112.74,-555.22 82.49,-660.18 105.08,-1187.37l107.01 -3.18c19,-160.45 48.11,-228.85 -5.36,-396.13l-127.88 -5.81c-38.48,-153.61 -53.23,-352.27 -88.94,-519.7 -183.86,-861.88 -638.58,-1747.79 -1234.94,-2371.26l-297.64 -297.13c-181.29,-173.59 -456.24,-392.79 -674.7,-527.23 -251.6,-154.86 -488.46,-293.6 -785.76,-416.55 -609.29,-252.01 -1255.27,-404.02 -1989.62,-403.79 -1008.36,0.33 -1981.06,302.92 -2782.59,827.1 -153.3,100.26 -386.21,269.26 -520.05,385.62l-598.78 603.15c-441.93,558.61 -732.73,1027.53 -957.42,1744.3 -159.77,509.64 -126.69,635.58 -211.74,975.45l-128.66 11.01z"/>
   <path class="fil0" d="M3403.69 4326.01c-100.85,26 -203.94,154.92 -267.11,217.68 -93.34,92.74 -148.7,200.22 -33.37,329.76 44.3,49.76 196.16,204.78 248.11,233.94 83.33,46.76 346.29,23.58 463.9,23.66 169.73,0.08 296.47,12.03 347.44,-129.13 24.36,-67.54 19.84,-393.85 12.55,-487.6 -12.75,-163.67 -121.47,-196.4 -289.1,-195.64 -109.78,0.49 -399.4,-14.09 -482.42,7.33z"/>
   <path class="fil0" d="M2220.12 3411.86l0 452.63c0,161.92 72.61,198.6 147.63,273.47 56.72,56.58 137.92,166.46 246.63,172.44 116.7,6.43 199.85,-109.31 253.21,-162.91 68.63,-68.9 164.18,-125.17 164.18,-268.85l0 -480.93c0,-280.62 -277.01,-222.11 -588.61,-222.11 -153.53,0 -223.04,84.4 -223.04,236.26z"/>
   <path class="fil0" d="M1237.77 4324.57c-160.08,38.07 -163.73,148.95 -163.36,317.85 1.11,503.27 -19.43,488.61 477.64,488.61 191.56,0 297.23,33.35 410.96,-77.75 289.76,-283.06 345.82,-312.51 80.95,-577.38 -98.49,-98.49 -115.43,-158.25 -321.96,-157.28 -104.18,0.51 -408,-12.18 -484.23,5.94z"/>
   <path class="fil0" d="M2220.12 5576l0 466.78c0,289.88 235.42,232.63 576.68,232.63 160.45,0 234.97,-76.27 234.97,-232.63l0 -466.78c0,-143.03 -79.21,-191.23 -146.54,-258.3 -236.51,-235.61 -281.22,-240.64 -512.3,-10.08 -74.18,74.03 -152.81,117.07 -152.81,268.38z"/>
   <path class="fil0" d="M2378.22 2828.43c1118.48,-130.46 2034.29,672.65 2142.72,1659.57 125.43,1141.44 -666.63,2025.5 -1655.43,2146.19 -1132.52,138.21 -2016.79,-676.01 -2147.91,-1650.87 -152.42,-1133.1 699.34,-2042.79 1660.62,-2154.89zm58.73 -69.35c-1044.14,94.59 -1889.57,1004.11 -1787.96,2180.32 119.72,1386.22 1667.89,2202 2933.16,1521.51 104.14,-56.02 218.85,-134 295.76,-200.06 482.32,-414.29 776.41,-965.94 713.37,-1731.72 -83.6,-1015.57 -1018.24,-1872.96 -2154.34,-1770.04z"/>
   <path class="fil0" d="M7638.75 2827.77c808.37,-98.71 1557.47,321.38 1903.76,953.56 407.84,744.6 308.75,1566.77 -193.26,2179.93 -1030.67,1258.94 -3163.81,706.33 -3378.58,-999.47 -140.71,-1117.57 695.4,-2015.29 1668.08,-2134.03zm2212.23 2012.71c56.76,-546.39 -189.79,-1068.64 -513.93,-1448.28 -317.21,-371.53 -825.45,-599.56 -1344.39,-639.22 -581.06,-44.42 -1035.08,164.78 -1451.49,513.6 -128.99,108.06 -335.66,363.81 -428.77,560.54 -682.83,1442.63 354.26,2813.95 1634.54,2875.8 850.86,41.11 1549.19,-389.07 1894.07,-1071.08 136.87,-270.62 173.94,-444.52 209.98,-791.36z"/>
   <path class="fil0" d="M7903.05 5620.77c40.76,-36.7 68.86,-67.42 107.61,-106.77 38.16,-38.77 63.21,-90.46 132.85,-65.3 57.91,49.66 -87.15,142.23 -165.89,240.47 26.04,74.79 224.46,175.89 162.34,250.62 -72.24,62.49 -173.96,-131.37 -256.37,-169.42 -26.94,36 -191.66,242.71 -240.31,164.8 -32.75,-52.45 107.11,-156.22 177,-231.85 -34.81,-64.05 -233.08,-193.51 -170.14,-251.77 63.02,-58.34 199.42,138.41 252.9,169.23zm476.59 139.11c45.96,-270.97 -156.13,-510.87 -412.17,-547.65 -281.98,-40.52 -519.14,164.76 -555.51,408.87 -93.05,624.84 852.31,819.01 967.68,138.78z"/>
   <path class="fil0" d="M7648.46 3923.33c-128.64,0 -105.45,-51.87 -57.52,-131.28 43.39,-71.9 247.82,-482.96 300.93,-489.51 52.22,-6.43 99.13,110.38 117.22,144.04 32.61,60.7 62.94,109.48 97.69,171.7 205.38,367.82 262.16,305.04 -458.32,305.04zm138.29 -701.68c-282.61,80.36 -432.54,333.21 -366.66,590.13 156.13,608.92 1079.91,425.29 955.81,-218.13 -43.88,-227.43 -299.8,-454.29 -589.15,-372z"/>
   <path class="fil0" d="M5253.82 8076.7l543.6 -8.95c-2.77,134.76 41.73,588.96 -74.56,745.77 -48.36,65.2 -106.13,79.41 -191.06,106.27 -108.41,34.29 -129.44,34.91 -209.69,-27.23 -79.95,-61.91 -66.97,-2.16 -65.67,-232.98 1.09,-194.54 -5.93,-388.84 -2.63,-582.87zm-47.72 0.27c3.37,193.92 -3.7,388.17 -2.61,582.6 1.21,213.94 17.93,170.49 -64.54,234.78 -78.57,61.22 -102.58,57.89 -210.82,24.23 -196.46,-61.09 -223.84,-109 -260.02,-319.76 -35.08,-204.41 -2.01,-340.87 -6.22,-531.05l544.2 9.2zm-1684.11 -312.49c-148.58,-65.06 -368.53,-214 -423.02,-189.36 1.48,65.08 14.83,50.56 130.46,114.63 56.41,31.26 104.57,59.74 165.17,88.84 451.13,216.57 702.16,283.84 1224.32,289.99 1.44,134.34 -19.92,262.45 -14.07,393.53 2.96,66.52 44.44,308.02 66.08,346.38 35.86,63.64 140.71,157.39 246.82,164.02 141.92,8.87 235.44,-22.28 311.94,-84.71 177.28,144.3 466.96,105.27 563.89,-88.47 18.17,-36.33 60.15,-293.11 61.38,-351.37 2.75,-130.18 -16.35,-247.15 -14.33,-379.23 364.45,-6.2 557.2,-24.79 878,-141.04 113.23,-41.05 252.65,-101.16 357.18,-152.46 57.93,-28.42 106.56,-56.45 165.03,-89.04 131.63,-73.35 122.76,-52.96 121.94,-114.24 -57.81,-18.75 -142.58,52.61 -207.35,85.49 -74.65,37.89 -137.82,74.4 -216.86,107.96 -153.67,65.26 -307.69,130.53 -480.56,171.17 -416.88,98.04 -2042.56,98.96 -2456.4,-1.03 -176.32,-42.59 -322.23,-102.19 -479.61,-171.08z"/>
   <path class="fil0" d="M6611.95 4486.85c0,-77.09 13.39,-75.92 88.8,-75.92l396.05 0c77.26,0 88.59,14.38 88.59,90.07l0 396.05c0,69.21 -18.98,88.26 -88.59,88.26l-396.05 0c-68.98,0 -88.8,-2.69 -88.8,-74.11l0 -424.35zm768.41 282.9c52.96,-272.04 -160.51,-518.36 -397.2,-555.29 -294.36,-45.94 -533.78,157.88 -571.02,404.23 -44.42,293.97 162.05,524.5 402.44,561.94 313.01,48.77 517.32,-161.96 565.78,-410.88z"/>
   <path class="fil0" d="M8828.28 4345.4c210.43,-45.55 377.82,97.36 420.61,264.17 55.88,217.93 -100.93,399.05 -262.16,439.26 -462.67,115.39 -652.63,-596.42 -158.45,-703.43zm552.12 424.35c86.97,-660.7 -866.91,-764.34 -967.01,-154.26 -107.05,652.3 883.28,790.54 967.01,154.26z"/>
   <path class="fil0" d="M8638.45 4755.6c75.35,323.27 573.13,241.11 517.77,-110.38 -19.94,-126.56 -146.63,-235.2 -318.59,-204.31 -118.29,21.25 -234.83,161.74 -199.18,314.69z"/>
   <polygon class="fil0" points="6713.47,4888.2 7074.2,4882.45 7074.22,4513.56 6713.47,4515.04 "/>
   <path class="fil1" d="M5229.69 4860.95l-88.39 -0.14 75.06 -272.9 107.05 -10.47 -54.19 220.16c-17.02,62.51 4.6,37.37 -39.53,63.35zm-218.75 7.87c10.51,-64.95 35.53,-103.19 56.82,-162.72 29.94,-83.72 12.92,-117.38 112.06,-128.16 -11.36,67.91 -30.72,119.64 -46.78,182.64 -27.68,108.53 1.21,104.07 -122.09,108.24zm346.05 -8.36l-71.94 0.7 74.69 -272.47 101.96 8.19 -104.71 263.58zm-416.16 -243.06l11.44 18.59c53.97,-45.12 12.83,-31.89 112.68,-39.39l-89 244.21c-4.79,-4.39 -27.64,-13.72 -34.17,-17.35l-52.28 22.16c-4.17,2.81 -9.26,6.98 -13.37,11.03 123.62,-13.96 27.07,45.55 339.41,50.58 61.11,0.97 123.71,-0.58 184.7,-3.45l108.82 -23.76c27.39,-15.81 18.46,-9.1 31.89,-28.22 -64.97,8.58 -39.49,22.86 -125.97,11.42 -1.15,-56.12 60.48,-214.99 97.61,-255.28l33.66 35.16c20.56,-35.01 138.86,-14.87 178.43,-14.87l-6.06 -103.23c-30.76,34.44 1.44,-2.98 -18.34,46.16l-17.95 38.65c-202.89,-3.88 -107.69,-21.97 -187.9,-46.41 -39.16,-11.91 -149.91,-21.64 -193.82,-21.5 -119.79,0.39 -301.36,-15.55 -359.77,75.49z"/>
   <path class="fil0" d="M7686.93 3826.01l422.36 4.66 -205.69 -373.4c-40.72,33.62 -195.62,312.43 -216.67,368.74z"/>
   <path class="fil2" d="M6713.47 4888.2l0 -373.17 360.75 -1.48 -0.02 368.9c33.92,-21.6 18.48,-98.67 18.48,-183.42 0,-62.65 4.44,-127.59 -4.25,-189.2 -66.27,-23.1 -309.84,-17.68 -384.88,-4.7l-8.6 336.33c7.09,50.56 3.98,28.13 18.52,46.74z"/>
   <path class="fil3" d="M56.56 4867.62c19.67,19.76 1.19,11.42 37.7,19.12l156.48 1.95c67.07,1.29 146.79,16.39 206.67,-9.43l0.62 -289.16c-60.7,-15.98 -129.64,-5.17 -193.16,-3.43l-142.21 -0.35c-81.51,11.34 -15.4,-1.93 -46.45,17.39l369.11 -6.02 -4.74 270.82 -384.02 -0.88z"/>
   <path class="fil3" d="M10402.82 4867.62l-346.7 4.35 -4.7 -275.03 331.75 6.72 -344.12 -16.8 1.34 295.49c26.37,8.21 310.87,23.99 362.43,-14.74z"/>
  </g>
 </g>
</svg>
